<svg xmlns="http://www.w3.org/2000/svg" viewBox="0 0 168 125.6">
<!-- SVG created with Arrow, by QuiverAI (https://quiver.ai) -->
  <style type="text/css">.cls-0 {fill:#BD1729;}
.cls-1 {fill-rule:evenodd;clip-rule:evenodd;fill:#FBBDA3;}</style>
  <path class="cls-1" d="m95 34.7h-33c-0.4 0.2-6.7 0.6-7.5 7.6 0.5 7.2 6.3 8.7 7.4 8.8h16.5l0.1 0.1v0.1c6.7 0.5 10.7 5.3 11 10.8 0.1 6.5-4.8 12.3-10.8 13.2h-17.1v0.1c-2.2 0.3-5.7 1.8-7 6-0.7 4 1.3 8.8 6.8 9.7l0.4 0.1h32.6v-6.6h-31.7c-0.7-0.1-1.6-0.5-1.5-1.8 0-0.8 0.5-1.5 1.6-1.5h32.6l0.8-0.1c3.4 0 11.5-2 15-8.8 1.4-2.5 2.3-5.2 2.3-8.9-0.1-10.1-7.6-17.4-17-18.7h-33.7c-0.8-0.1-1.6-0.5-1.6-1.8 0-1.1 0.8-1.7 1.8-1.7h31.3m1.2 34h-4.4c2.6-2.8 4.5-6.7 4.6-11.7 0-4.7-1.8-9.1-4.6-12.4h4.4v0.1c6.1 0.3 11.4 4.9 11.4 12 0 6.2-4.6 11.5-11.4 12z"/>
</svg>