<svg xmlns="http://www.w3.org/2000/svg" width="32" height="32" fill="none" viewBox="0 0 163 163"><mask id="mask0_logo-32" style="mask-type:alpha" width="163" height="163" x="0" y="0" maskUnits="userSpaceOnUse"><path fill="#FFFC95" d="M15.78 11.21c-3.538 4.528-5.256 10.626-8.691 22.82-2.442 8.24-3.664 12.36-4.565 16.544a112.56 112.56 0 00-2.2 15.158C0 70 0 74.296 0 82.89v33.419c0 16.344 0 24.515 3.18 30.758a29.18 29.18 0 0012.753 12.752C22.176 163 30.347 163 46.691 163h69.618c16.344 0 24.515 0 30.758-3.181a29.18 29.18 0 0012.752-12.752C163 140.824 163 132.653 163 116.309V82.89c0-8.594 0-12.891-.325-17.158a112.625 112.625 0 00-2.199-15.158c-.901-4.183-2.122-8.303-4.565-16.543-3.435-12.195-5.153-18.293-8.692-22.82a29.178 29.178 0 00-11.927-9.032C129.974 0 123.639 0 110.969 0H52.031C39.36 0 33.026 0 27.708 2.179a29.182 29.182 0 00-11.927 9.032z"></path></mask><g mask="url(#mask0_logo-32)"><g filter="url(#filter0_i_logo-32)"><path fill="url(#paint0_linear_logo-32)" d="M0 77.123h163v39.186c0 16.344 0 24.515-3.181 30.758a29.18 29.18 0 01-12.752 12.752C140.824 163 132.653 163 116.309 163H46.691c-16.344 0-24.515 0-30.758-3.181a29.18 29.18 0 01-12.752-12.752C0 140.824 0 132.653 0 116.309V77.123z"></path></g><g filter="url(#filter1_df_logo-32)"><path fill="#FBE34C" d="M11.41 11.228C7.638 15.763 5.806 21.87 2.142 34.084c-2.282 7.61-3.424 11.414-4.318 15.266A125.062 125.062 0 00-5.17 69.742c-.25 3.946-.25 7.918-.25 15.862v14.591c.315 8.557 2.954 15.17 8.407 22.112 2.966 3.775 9.248 8.785 16.491 8.785 10.573 0 17.212-3.926 23.59-7.806l.361-.22c6.247-3.802 12.36-7.524 21.64-7.005 10.575.008 18.032 6.631 24.61 13.03.512.499 1.019.996 1.521 1.488 2.755 2.701 5.38 5.275 8.088 7.283 3.192 2.366 6.413 3.877 9.971 3.877 5.697 0 10.178-2.66 14.145-6.775 3.763-3.903 6.999-9.046 10.324-14.331l.013-.021.569-.903c3.511-5.575 7.157-11.227 11.617-15.478 4.479-4.27 9.82-7.168 16.713-7.168h5.778c-.004-4.579-.005-10.095-.005-15.48 0-8.388 0-12.582-.276-16.726a124.518 124.518 0 00-1.222-10.998c-.64-4.103-1.556-8.175-3.389-16.32l-.099-.442c-2.975-13.226-4.463-19.839-8.196-24.78-3.291-4.358-7.792-7.785-13.013-9.909C136.299 0 129.101 0 114.707 0H50.071C36.559 0 29.803 0 24.13 2.182c-5.005 1.926-9.39 5.044-12.72 9.046z"></path></g><g filter="url(#filter2_iif_logo-32)"><path fill="url(#paint1_linear_logo-32)" d="M14.055 27.479c2.486-8.656 3.73-12.983 6.258-16.195a20.843 20.843 0 018.503-6.405c3.786-1.544 8.288-1.544 17.293-1.544h71.168c8.997 0 13.496 0 17.279 1.542a20.85 20.85 0 018.501 6.397c2.529 3.208 3.775 7.531 6.266 16.177l.903 3.132c2.951 10.242 4.427 15.363 3.345 19.708-.935 3.754-3.261 7.2-6.393 9.47-3.624 2.629-8.821 3.165-19.216 4.237-15.438 1.593-33.223 3.12-44.672 3.12-10.95 0-30.561-1.66-47.467-3.324-10.573-1.04-15.86-1.56-19.501-4.182a16.85 16.85 0 01-6.433-9.473c-1.093-4.352.395-9.53 3.37-19.888l.796-2.772z"></path></g><g filter="url(#filter3_f_logo-32)"><path fill="#fff" d="M123.396 121.065c0 6.846-6.252 15.255-13.965 15.255s-23.97-18.897-23.97-25.742c0-6.845 12.088 10.487 19.801 10.487 7.713 0 18.134-6.845 18.134 0z"></path></g><g filter="url(#filter4_f_logo-32)"><path fill="#fff" fill-opacity="0.7" d="M52.527 111.307c0 4.592-26.135 19.777-32.052 19.777-5.918 0-18.39-12.678-18.39-17.271 0-4.592 10.966 1.729 16.883 1.729 14.174 4.728 33.559-8.828 33.559-4.235z"></path></g></g><defs><filter id="filter0_i_logo-32" width="163" height="97.55" x="0" y="65.45" color-interpolation-filters="sRGB" filterUnits="userSpaceOnUse"><feFlood flood-opacity="0" result="BackgroundImageFix"></feFlood><feBlend in="SourceGraphic" in2="BackgroundImageFix" result="shape"></feBlend><feColorMatrix in="SourceAlpha" result="hardAlpha" values="0 0 0 0 0 0 0 0 0 0 0 0 0 0 0 0 0 0 127 0"></feColorMatrix><feOffset dy="-11.673"></feOffset><feGaussianBlur stdDeviation="7.087"></feGaussianBlur><feComposite in2="hardAlpha" k2="-1" k3="1" operator="arithmetic"></feComposite><feColorMatrix values="0 0 0 0 0.934961 0 0 0 0 0.742845 0 0 0 0 0 0 0 0 1 0"></feColorMatrix><feBlend in2="shape" result="effect1_innerShadow_logo-32"></feBlend></filter><filter id="filter1_df_logo-32" width="217.193" height="185.095" x="-27.097" y="-20.01" color-interpolation-filters="sRGB" filterUnits="userSpaceOnUse"><feFlood flood-opacity="0" result="BackgroundImageFix"></feFlood><feColorMatrix in="SourceAlpha" result="hardAlpha" values="0 0 0 0 0 0 0 0 0 0 0 0 0 0 0 0 0 0 127 0"></feColorMatrix><feOffset dy="1.668"></feOffset><feGaussianBlur stdDeviation="10.839"></feGaussianBlur><feComposite in2="hardAlpha" operator="out"></feComposite><feColorMatrix values="0 0 0 0 0.845345 0 0 0 0 0.65787 0 0 0 0 0 0 0 0 1 0"></feColorMatrix><feBlend in2="BackgroundImageFix" result="effect1_dropShadow_logo-32"></feBlend><feBlend in="SourceGraphic" in2="effect1_dropShadow_logo-32" result="shape"></feBlend><feGaussianBlur result="effect2_foregroundBlur_logo-32" stdDeviation="3.127"></feGaussianBlur></filter><filter id="filter2_iif_logo-32" width="171.074" height="90.463" x="-3.809" y="-10.005" color-interpolation-filters="sRGB" filterUnits="userSpaceOnUse"><feFlood flood-opacity="0" result="BackgroundImageFix"></feFlood><feBlend in="SourceGraphic" in2="BackgroundImageFix" result="shape"></feBlend><feColorMatrix in="SourceAlpha" result="hardAlpha" values="0 0 0 0 0 0 0 0 0 0 0 0 0 0 0 0 0 0 127 0"></feColorMatrix><feOffset dy="-5.836"></feOffset><feGaussianBlur stdDeviation="13.549"></feGaussianBlur><feComposite in2="hardAlpha" k2="-1" k3="1" operator="arithmetic"></feComposite><feColorMatrix values="0 0 0 0 1 0 0 0 0 1 0 0 0 0 1 0 0 0 0.9 0"></feColorMatrix><feBlend in2="shape" result="effect1_innerShadow_logo-32"></feBlend><feColorMatrix in="SourceAlpha" result="hardAlpha" values="0 0 0 0 0 0 0 0 0 0 0 0 0 0 0 0 0 0 127 0"></feColorMatrix><feOffset dy="-5.836"></feOffset><feGaussianBlur stdDeviation="13.549"></feGaussianBlur><feComposite in2="hardAlpha" k2="-1" k3="1" operator="arithmetic"></feComposite><feColorMatrix values="0 0 0 0 1 0 0 0 0 1 0 0 0 0 1 0 0 0 0.9 0"></feColorMatrix><feBlend in2="effect1_innerShadow_logo-32" result="effect2_innerShadow_logo-32"></feBlend><feGaussianBlur result="effect3_foregroundBlur_logo-32" stdDeviation="6.67"></feGaussianBlur></filter><filter id="filter3_f_logo-32" width="69.619" height="59.025" x="69.619" y="93.137" color-interpolation-filters="sRGB" filterUnits="userSpaceOnUse"><feFlood flood-opacity="0" result="BackgroundImageFix"></feFlood><feBlend in="SourceGraphic" in2="BackgroundImageFix" result="shape"></feBlend><feGaussianBlur result="effect1_foregroundBlur_logo-32" stdDeviation="7.921"></feGaussianBlur></filter><filter id="filter4_f_logo-32" width="74.621" height="44.921" x="-10.005" y="98.253" color-interpolation-filters="sRGB" filterUnits="userSpaceOnUse"><feFlood flood-opacity="0" result="BackgroundImageFix"></feFlood><feBlend in="SourceGraphic" in2="BackgroundImageFix" result="shape"></feBlend><feGaussianBlur result="effect1_foregroundBlur_logo-32" stdDeviation="6.045"></feGaussianBlur></filter><linearGradient id="paint0_linear_logo-32" x1="81.5" x2="81.5" y1="77.123" y2="163" gradientUnits="userSpaceOnUse"><stop stop-color="#F9C200"></stop><stop offset="1" stop-color="#FDE44D"></stop></linearGradient><linearGradient id="paint1_linear_logo-32" x1="81.495" x2="81.495" y1="-0.075" y2="60.448" gradientUnits="userSpaceOnUse"><stop stop-color="#FDE44D"></stop><stop offset="0.855" stop-color="#FFFADA"></stop><stop offset="1" stop-color="#FDE44D"></stop></linearGradient></defs></svg>