<?xml version="1.0" encoding="UTF-8"?><svg id="Layer_1" xmlns="http://www.w3.org/2000/svg" width="1200.15" height="212.82" xmlns:xlink="http://www.w3.org/1999/xlink" viewBox="0 0 1200.15 212.82"><defs><style>.cls-1{fill:url(#linear-gradient);}.cls-2{fill:#fff;}</style><linearGradient id="linear-gradient" x1="0" y1="105.84" x2="254.96" y2="105.84" gradientUnits="userSpaceOnUse"><stop offset="0" stop-color="#9dc6cc"/><stop offset=".21" stop-color="#9dc6cc"/><stop offset=".49" stop-color="#72b3be"/><stop offset=".63" stop-color="#6babb7"/><stop offset=".85" stop-color="#66a5b1"/><stop offset="1" stop-color="#57a6b3"/></linearGradient></defs><path class="cls-2" d="M330.8,3.71h154.83v41.71h-104.27v36.56h89.41v39.42h-89.41v43.71h105.98v42.85h-156.54V3.71Z"/><path class="cls-2" d="M513.54,3.71h67.99l24.85,89.41c3.71,12.85,11.71,46.56,11.71,46.56h.57s8-33.71,11.43-46.56l25.14-89.41h68.56v204.25h-46.28v-102.84c0-8.28.86-40.85.86-40.85h-.57s-7.14,30.57-9.43,37.99l-29.42,105.69h-41.71l-29.14-105.41c-2.29-7.43-9.43-38.28-9.43-38.28h-.57s.86,32.85.86,41.14v102.55h-45.42V3.71Z"/><path class="cls-2" d="M756.01,3.71h50.56v204.25h-50.56V3.71Z"/><path class="cls-2" d="M838.79,3.71h87.13c56.56,0,94.55,40.85,94.55,103.41,0,35.99-12.57,64.85-35.42,82.27-16,12-36.56,18.57-62.27,18.57h-83.98V3.71ZM919.06,165.4c33.14,0,50.28-20.85,50.28-58.27s-18-61.13-49.71-61.13h-30.28v119.41h29.71Z"/><path class="cls-2" d="M1025.33,143.69h50.85c2.29,20.57,15.71,29.14,39.99,29.14,16.57,0,32.85-6,32.85-21.42,0-16.28-16.57-19.71-44.56-26.57-35.42-8.28-72.84-19.14-72.84-61.99S1067.03,0,1112.74,0s78.56,20,80.56,62.85h-49.42c-2-15.71-14-24.57-32.85-24.57-17.71,0-29.42,7.71-29.42,19.14,0,14.28,15.71,17.71,46.28,24.57,37.99,8.86,72.27,20.57,72.27,64.27s-36.56,66.56-83.7,66.56c-54.28,0-89.98-24-91.13-69.13Z"/><path class="cls-1" d="M0,3.71v163.96c0,22.25,18.04,40.29,40.29,40.29h214.67V3.71H0ZM225.17,178.17H40.29c-5.79,0-10.5-4.71-10.5-10.5v-49.07h89.19v-29.79H29.79v-55.31h195.39v144.67Z"/></svg>