<svg xmlns="http://www.w3.org/2000/svg" viewBox="0 0 155 51">
<!-- SVG created with Arrow, by QuiverAI (https://quiver.ai) -->
  <style type="text/css">.cls-0 {fill:#0A1419;}
.cls-1 {fill:#E6E6E7;}</style>
  <path class="cls-1" d="m38.7 6.3h-23.2l-8.8 10.3h28.4l-12.7 15.4h11.4c0.2 0 0.3-0.2 0.4-0.3l12.9-14.7-8-10.5c-0.1-0.1-0.2-0.2-0.4-0.2zm-21.2 28.1 12-15.1h-11.1c-0.1 0-0.6 0.6-0.7 0.7l-11.5 14v0.3l7.6 9.7c0.1 0.1 0.1 0.2 0.3 0.3h24.5l8.3-9.9h-29.4z"/>
  <path class="cls-1" d="m57.3 16.3v19c0 0.3 0.1 0.3 0.3 0.3h3.3l0.1-0.2v-6.6l0.2-0.1h4.2c2.9 0 5.7-2.1 5.7-6.3-0.1-3.3-2.7-6.6-5.9-6.6h-7.4c-0.4 0-0.5 0.2-0.5 0.5zm7.5 9h-3.7l-0.1-0.2v-5.8l0.1-0.2h3.7c1.7 0 2.8 1.2 2.8 3s-1.1 3.2-2.8 3.2z"/>
  <path class="cls-1" d="m77.9 21.2c-3.5 0.1-7.1 2.5-7.1 7.3 0 4.1 3.1 7.3 7.2 7.2 4.6 0 7-2.8 7-7.2 0-3.7-2.2-7.3-7.1-7.3zm0.1 11.4c-2.2 0-3.6-1.7-3.6-3.9 0-2.1 1.2-4 3.6-4 2.3 0 3.4 2 3.4 3.8 0 2.2-1.5 4.1-3.6 4.1h0.2z"/>
  <path class="cls-1" d="m89.7 23.2-0.3-1.4-0.1-0.2h-3.1l-0.2 0.2v13.5l0.2 0.2h3.3l0.2-0.1v-6.6c0-2.7 1.4-4.2 3.3-4.2 0.7 0 1 0.1 1.2 0.2l1.3-3.2-0.2-0.3c-0.5-0.3-1.2-0.4-1.9-0.4-1.3 0.1-2.8 0.8-3.7 2.3z"/>
  <path class="cls-1" d="m102.3 17.4h-3.4l-0.2 0.2v3.7l-0.1 0.1h-2.4l-0.2 0.2v2.7l0.2 0.3h2.4l0.1 0.1v7.3c0 2.3 1.5 3.7 3.4 3.7 1.8 0 3.2-0.1 3.4-0.3 0.1-0.2 0.1-2.9-0.3-2.9-0.5 0-1.3 0.1-1.8 0.1s-1.2-0.5-1.2-1.4v-6.4l0.2-0.2h2.9l0.3-0.3v-2.7l-0.3-0.2h-2.9v-3.8l-0.1-0.2z"/>
  <path class="cls-1" d="m117.3 15.9v7.2c-0.7-0.9-2.1-1.9-4.4-1.9-3.8 0-6.9 3.2-6.9 7.1 0 4.1 2.6 7.3 6.6 7.3 1.7 0 3.5-0.7 4.7-2l0.2 1.6 0.1 0.1h2.6l0.2-0.2v-19.2l-0.1-0.2h-2.9l-0.1 0.2zm-3.7 16.6c-1.9-0.1-3.9-1.6-3.9-3.9s1.6-4 4-4c2.2 0 3.6 2 3.6 4 0 2.2-1.4 3.9-3.7 3.9z"/>
  <path class="cls-1" d="m128.3 21.1c-4.1 0-7.1 2.7-7.1 7 0 4.6 3.2 7.4 7.1 7.5 3.8-0.1 5.9-2.2 6.7-3.6l-0.2-0.4-2-1.2h-0.4c-0.7 1.2-2 2-3.7 2-1.8-0.1-3.9-1.1-4.1-3h10.4l0.3-0.3c0.5-4.1-2.4-8-6.6-8h-0.4zm-3.4 5.7c0.5-1.7 1.8-2.6 3.4-2.6 1.7 0 3.3 0.9 3.6 2.6h-7z"/>
  <path class="cls-1" d="m144.5 21.5-2.5 3.9-0.1 0.3 0.1-0.4 0.1 0.2-0.2 0.5h-0.1l-2.5-4.1-0.2-0.3h-3.8l-0.2 0.1 4.4 6.9-4.3 6.7 0.1 0.2h3.8l2.6-4.1 0.2-0.3-0.1 0.2v-0.2l0.2 0.1 2.6 4.3h4v-0.2l-4.1-6.6 4.3-6.8v-0.3h-4l-0.3-0.1z"/>
</svg>