<svg xmlns="http://www.w3.org/2000/svg" viewBox="7 8 156.9 44">
<!-- SVG created with Arrow, by QuiverAI (https://quiver.ai) -->
  <polygon points="46.7 10.5 22.9 10.5 14.2 20.6 42.5 20.6 29.8 36.5 41.8 36.5 54.9 21"/>
  <polygon points="25.9 23.4 13.7 38.4 21.8 48.9 46.3 48.9 54.9 38.6 25.4 38.6 37.5 23.4"/>
  <path d="m65 20v20h3.8l-0.2-7h4.4c2.9 0 6.1-2.3 6.1-6 0.1-4.2-3.5-7.2-6.1-7h-8zm7.5 9.5h-3.9v-6.1h3.9c1.7 0 2.8 1.3 2.9 2.6s-0.9 3.5-2.9 3.5z"/>
  <path d="m85.9 25.4c-3.6 0-7.2 2.5-7.3 7.2s3.4 6.6 4.9 7.1 5.7 1 8.2-1.7c1.4-1.4 2-3.1 2-5.2-0.1-5.2-3.9-7.3-7.8-7.4zm-0.2 11.6c-1.3-0.1-3.3-1.1-3.3-4.1 0.2-3.3 2.6-3.9 3.6-3.9 1.9 0 3.6 1.4 3.6 3.8 0.1 2-1.4 4.3-3.9 4.2z"/>
  <path d="m94.3 25.8v14.2h3.7v-7.8c0.2-1.8 2-3.9 4.5-3l1.5-3.4c-2.4-1.4-5.5-0.1-6.1 2l-0.1-2h-3.5z"/>
  <path d="m106.6 21.5 0.1 4.1h-2.5l-0.1 3.2h2.9v-0.1c0 2.1-0.1 6.3 0 7.9 0 1.2 0.8 3.3 3.6 3.5 1.1 0.1 2.8-0.2 3.5-0.5l-0.7-3c-3 1.3-3-1.1-2.9-1.7v-6.1h3.5l0.1-3.2h-3.5l-0.1-4.1h-3.9z"/>
  <path d="m125.3 19.8v7.7c-0.6-1-2.3-2.1-4.3-2.1-4 0-6.8 3.2-6.8 7.4 0 3.1 2.1 7 6.4 7.1 1.9 0.1 3.8-0.7 4.7-2l0.1 1.8h3.1v-19.9h-3.2zm-3.7 17.2c-1.7 0-3.6-1.5-3.7-4.1 0-2.6 2.1-4 3.6-4 2.1-0.1 3.9 1.7 3.8 4.1 0 2-1.5 4-3.7 4z"/>
  <path d="m136.6 25.4c-4.6-0.1-7.3 3.6-7.3 7.2 0 4.8 3.4 7.3 7 7.3 3.1 0.1 5.3-1.1 6.8-3.6l-2.8-1.5c-0.7 0.9-1.3 2-3.7 2.1-1.3 0-3.5-0.9-3.7-3.2h10.3c0.5-3.9-1.8-8.2-6.6-8.3zm-3.3 5.8c0.4-1.5 1.7-2.7 3.2-2.7 1.4 0 3.1 0.6 3.5 2.7h-6.7z"/>
  <path d="m142.5 25.7 5.1 7.2-4.8 7.1h4.3l2.9-4.5 2.9 4.5h4.3l-4.6-7 4.7-7.2h-4.4l-2.9 4.5-2.9-4.5h-4.6z"/>
</svg>