<svg xmlns="http://www.w3.org/2000/svg" viewBox="0 0 165.4 59">
<!-- SVG created with Arrow, by QuiverAI (https://quiver.ai) -->
  <style type="text/css">.cls-0 {fill:#0A1417;}
.cls-1 {fill:#F1F6F8;}</style>
  <path d="m109.5 16c-7.7 0.1-13.6 5.9-13.6 13.6s5.4 13.3 13.2 13.3 13.5-5.1 13.5-12.9c0.2-7.9-5.7-14-13.1-14zm-0.2 21.5c-4 0-7.2-3-7.2-7.7 0-4.3 2.7-8.3 7.3-8.3 4-0.1 7.2 2.9 7.2 8 0 4.4-2.5 8-7.3 8z" fill="#f1f6f8"/>
  <path d="m89.6 17.4-4 16.8-4.3-16.8c-0.1-0.3-0.4-0.6-0.7-0.6h-6.1c-0.3 0-0.7 0.2-0.7 0.6l-4.5 16.8-3.9-16.6c-0.1-0.5-0.5-0.8-1-0.8h-4.6c-0.4 0-0.8 0.3-0.6 0.8l6.3 23.9c0.1 0.3 0.4 0.7 0.8 0.7h5.8c0.3 0 0.8 0 0.9-0.7l4.3-17 4.7 17c0.1 0.3 0.4 0.7 0.8 0.7h5.8c0.4 0 0.8 0 0.9-0.7l6.4-23.9c0.2-0.5-0.2-0.8-0.6-0.8h-4.8c-0.4 0-0.8 0.3-0.9 0.6z" fill="#f1f6f8"/>
  <path d="m138.8 16.4h-0.7c-2.5 0-4.7 1-6.9 2.9v-1.7c0-0.5-0.3-0.8-0.8-0.8h-4.3c-0.4 0-0.8 0.3-0.8 0.8v23.7c0 0.5 0.4 0.9 0.9 0.9h3.9c0.5 0 1.1-0.2 1.1-0.9v-10.3c0-5 1.4-8.7 6.5-8.7h1.3c0.5 0 1.1-0.3 1.1-1.3l0.1-3.4c0-0.7-0.6-1.2-1.4-1.2z" fill="#f1f6f8"/>
  <path d="m164.1 41.2-8.4-12.8c3.7-1.7 6.9-4.8 7.4-10.7 0.1-0.5-0.3-0.9-0.8-0.9h-4.3c-0.4 0-0.9 0.2-1 0.9-0.8 4.8-4.2 6.3-8.4 6.3v-16.5c0-0.5-0.4-1-0.9-1h-3.7c-0.5 0-1 0-1 1v33.7c0 0.5 0.4 1 0.9 1h3.8c0.6 0 0.9-0.3 0.9-0.8v-11.4h1.4l7.8 11.6c0.2 0.4 0.5 0.6 1 0.6h4.7c0.4 0 1-0.4 0.6-1z" fill="#f1f6f8"/>
  <path d="m45.8 16c-5.4 0-10.8 2.8-12.7 9.5-1.7-2.6-2.6-5.8-3.6-8.1-0.1-0.3-0.4-0.6-0.8-0.6h-8.6c-0.5 0-0.9 0.3-0.9 1v12.2c0 4.2-1.9 7.4-6.3 7.4-3.8 0-5.9-2.7-6.2-6.6v-13.1c0-0.5-0.4-0.9-1-0.9h-3.8c-0.5 0-0.9 0.4-0.9 1v13.1c0 7 4.7 11.8 11.6 11.9 7 0 12.3-4.5 12.3-12.8v-7.9c1.9 4.4 3.1 8 5.7 11.8l-2.7 16.8c-0.1 0.7 0.5 1.1 1 1.1h4c0.5 0 0.9-0.2 1-0.8l2.2-11.8c2.6 2.1 5.4 3.5 9.9 3.5 6.5 0 13-4.6 13-12.7 0.4-7.2-4.9-14-13.2-14zm0 21.4c-3.8 0-7.1-2-8.5-4.8 0.9-6.4 3-11.2 8.6-11.2 4.3 0 7.1 3.5 7.1 8 0.1 4.5-2.8 8-7.2 8z" fill="#f1f6f8"/>
</svg>